<?xml version="1.0" encoding="UTF-8" standalone="no"?>
<svg
   xmlns:dc="http://purl.org/dc/elements/1.1/"
   xmlns:cc="http://creativecommons.org/ns#"
   xmlns:rdf="http://www.w3.org/1999/02/22-rdf-syntax-ns#"
   xmlns:svg="http://www.w3.org/2000/svg"
   xmlns="http://www.w3.org/2000/svg"
   id="svg8"
   version="1.1"
   viewBox="0 0 72.115995 26.45833"
   height="26.45833mm"
   width="72.115997mm">
  <title
     id="title827">NiceCat – Logo</title>
  <defs
     id="defs2" />
  <metadata
     id="metadata5">
    <rdf:RDF>
      <cc:Work
         rdf:about="">
        <dc:format>image/svg+xml</dc:format>
        <dc:type
           rdf:resource="http://purl.org/dc/dcmitype/StillImage" />
        <dc:title>NiceCat – Logo</dc:title>
        <dc:creator>
          <cc:Agent>
            <dc:title>Christer Warén &amp; Elias Virta</dc:title>
          </cc:Agent>
        </dc:creator>
        <dc:rights>
          <cc:Agent>
            <dc:title />
          </cc:Agent>
        </dc:rights>
        <dc:publisher>
          <cc:Agent>
            <dc:title>Warén Media</dc:title>
          </cc:Agent>
        </dc:publisher>
        <dc:date>2020-02-08</dc:date>
      </cc:Work>
    </rdf:RDF>
  </metadata>
  <g
     style="display:inline"
     id="layer1" />
  <g
     transform="translate(0,-5.331726e-6)"
     style="display:none"
     id="layer4">
    <text
       id="text836-9"
       y="16.681656"
       x="6.578774"
       style="font-style:normal;font-weight:normal;font-size:10.58333302px;line-height:1.25;font-family:sans-serif;letter-spacing:0px;word-spacing:0px;display:inline;fill:#ffffff;fill-opacity:1;stroke:none;stroke-width:0.26458332"
       xml:space="preserve"><tspan
         id="tspan842"
         style="font-style:normal;font-variant:normal;font-weight:800;font-stretch:normal;font-size:9.87777805px;font-family:Montserrat;-inkscape-font-specification:'Montserrat Ultra-Bold';fill:#ffffff;fill-opacity:1;stroke-width:0.26458332"
         y="16.681656"
         x="6.578774">NICE</tspan></text>
    <text
       id="text840"
       y="16.93791"
       x="36.571983"
       style="font-style:normal;font-weight:normal;font-size:10.58333302px;line-height:1.25;font-family:sans-serif;letter-spacing:0px;word-spacing:0px;fill:#000000;fill-opacity:1;stroke:none;stroke-width:0.26458332"
       xml:space="preserve"><tspan
         style="font-style:normal;font-variant:normal;font-weight:800;font-stretch:normal;font-family:Montserrat;-inkscape-font-specification:'Montserrat Ultra-Bold';stroke-width:0.26458332"
         y="16.93791"
         x="36.571983"
         id="tspan838">CAT</tspan></text>
  </g>
  <g
     id="g923"
     style="display:inline"
     transform="translate(0,-5.331726e-6)" />
  <g
     id="layer2">
    <g
       transform="translate(2.9819984)"
       id="g894">
      <g
         style="display:inline"
         id="g983"
         transform="translate(-0.01803848,-5.177307e-6)">
        <rect
           y="7.9064398"
           x="1.5676502"
           height="10.660432"
           width="32.628429"
           id="rect832"
           style="display:inline;fill:#000000;fill-opacity:1;stroke:#000000;stroke-width:0.52256912;stroke-linecap:round;stroke-linejoin:round;stroke-miterlimit:4;stroke-dasharray:none;stroke-opacity:1"
           transform="translate(0,5.1773071e-6)" />
        <rect
           y="7.8946719"
           x="34.184311"
           height="10.67813"
           width="30.444801"
           id="rect832-3"
           style="display:inline;fill:#ffffff;fill-opacity:1;stroke:#000000;stroke-width:0.50519902;stroke-linecap:round;stroke-linejoin:round;stroke-miterlimit:4;stroke-dasharray:none;stroke-opacity:1"
           transform="translate(0,5.1773071e-6)" />
        <g
           transform="translate(-2.9642184,-0.0381662)"
           id="text917"
           style="font-style:normal;font-weight:normal;font-size:10.58333302px;line-height:1.25;font-family:sans-serif;letter-spacing:0px;word-spacing:0px;display:inline;fill:#ffffff;fill-opacity:1;stroke:none;stroke-width:0.26458332"
           aria-label="NICE">
          <path
             id="path925"
             style="font-style:normal;font-variant:normal;font-weight:800;font-stretch:normal;font-size:9.87777805px;font-family:Montserrat;-inkscape-font-specification:'Montserrat Ultra-Bold';fill:#ffffff;fill-opacity:1;stroke-width:0.26458332"
             d="M 11.93253,9.7672112 V 13.451622 L 8.8802963,9.7672112 H 7.2702184 v 6.9144448 h 1.916289 v -3.684411 l 3.0522336,3.684411 h 1.610078 V 9.7672112 Z" />
          <path
             id="path927"
             style="font-style:normal;font-variant:normal;font-weight:800;font-stretch:normal;font-size:9.87777805px;font-family:Montserrat;-inkscape-font-specification:'Montserrat Ultra-Bold';fill:#ffffff;fill-opacity:1;stroke-width:0.26458332"
             d="m 15.231705,16.681656 h 1.9558 V 9.7672112 h -1.9558 z" />
          <path
             id="path929"
             style="font-style:normal;font-variant:normal;font-weight:800;font-stretch:normal;font-size:9.87777805px;font-family:Montserrat;-inkscape-font-specification:'Montserrat Ultra-Bold';fill:#ffffff;fill-opacity:1;stroke-width:0.26458332"
             d="m 22.027604,16.819945 c 1.274234,0 2.301523,-0.464256 2.973212,-1.303867 l -1.2446,-1.126067 c -0.434623,0.523523 -0.968023,0.809978 -1.629834,0.809978 -1.135944,0 -1.926167,-0.790222 -1.926167,-1.975555 0,-1.185334 0.790223,-1.975556 1.926167,-1.975556 0.661811,0 1.195211,0.286456 1.629834,0.809978 l 1.2446,-1.126067 c -0.671689,-0.839611 -1.698978,-1.3038666 -2.973212,-1.3038666 -2.192866,0 -3.802944,1.4915446 -3.802944,3.5955116 0,2.103966 1.610078,3.595511 3.802944,3.595511 z" />
          <path
             id="path931"
             style="font-style:normal;font-variant:normal;font-weight:800;font-stretch:normal;font-size:9.87777805px;font-family:Montserrat;-inkscape-font-specification:'Montserrat Ultra-Bold';fill:#ffffff;fill-opacity:1;stroke-width:0.26458332"
             d="M 27.806095,15.170356 V 13.906 h 3.071989 v -1.461911 h -3.071989 v -1.165578 h 3.486856 V 9.7672112 h -5.4229 v 6.9144448 h 5.551311 v -1.5113 z" />
        </g>
        <g
           transform="matrix(1.0000098,0,0,1,2.9998196,-1.4808106e-6)"
           id="text921"
           style="font-style:normal;font-weight:normal;font-size:10.58333302px;line-height:1.25;font-family:sans-serif;letter-spacing:0px;word-spacing:0px;fill:#000000;fill-opacity:1;stroke:none;stroke-width:0.26458332"
           aria-label="CAT">
          <path
             id="path934"
             style="font-style:normal;font-variant:normal;font-weight:800;font-stretch:normal;font-family:Montserrat;-inkscape-font-specification:'Montserrat Ultra-Bold';stroke-width:0.26458332"
             d="m 41.0064,17.086077 c 1.36525,0 2.465916,-0.497417 3.185583,-1.397 l -1.3335,-1.2065 c -0.465667,0.560916 -1.037166,0.867833 -1.74625,0.867833 -1.217083,0 -2.06375,-0.846667 -2.06375,-2.116666 0,-1.27 0.846667,-2.116667 2.06375,-2.116667 0.709084,0 1.280583,0.306917 1.74625,0.867833 l 1.3335,-1.2065 C 43.472316,9.878827 42.37165,9.3814103 41.0064,9.3814103 c -2.3495,0 -4.074583,1.5980837 -4.074583,3.8523337 0,2.254249 1.725083,3.852333 4.074583,3.852333 z" />
          <path
             id="path936"
             style="font-style:normal;font-variant:normal;font-weight:800;font-stretch:normal;font-family:Montserrat;-inkscape-font-specification:'Montserrat Ultra-Bold';stroke-width:0.26458332"
             d="m 50.541961,16.93791 h 2.180167 L 49.441294,9.529577 h -2.06375 l -3.270249,7.408333 h 2.137833 l 0.582083,-1.439333 h 3.132667 z m -3.100917,-2.9845 0.9525,-2.370666 0.9525,2.370666 z" />
          <path
             id="path938"
             style="font-style:normal;font-variant:normal;font-weight:800;font-stretch:normal;font-family:Montserrat;-inkscape-font-specification:'Montserrat Ultra-Bold';stroke-width:0.26458332"
             d="m 54.521268,16.93791 h 2.0955 v -5.74675 h 2.264833 V 9.529577 h -6.63575 v 1.661583 h 2.275417 z" />
        </g>
      </g>
      <g
         id="g962"
         style="stroke:#000000;stroke-width:0.47999999;stroke-miterlimit:4;stroke-dasharray:none;stroke-opacity:1"
         transform="matrix(0.71574238,0,0,0.71574238,9.9204007,3.7635539)">
        <path
           id="path3743"
           transform="scale(0.26458333)"
           d="m 137.7832,42.048828 c -1.97163,0.02412 -3.66028,0.9485 -4.69336,2.494141 -1.37743,2.060854 -1.60566,5.470688 -3.33203,6.183593 -1.72636,0.712906 -5.53328,-1.031682 -8.53515,-0.626953 -3.00188,0.40473 -5.47323,2.834512 -6.60352,5.962891 -1.13029,3.128379 -0.91864,6.955355 -1.20117,12.144531 -0.28253,5.189176 -1.05988,11.738514 1.30664,15.566407 2.36652,3.827892 7.87704,4.931568 10.87891,3.27539 3.00186,-1.656178 3.6023,-7.024752 6.53906,-7.371094 2.93676,-0.346341 8.47236,2.45044 11.8418,0.144532 3.36943,-2.305909 1.98831,-6.439477 3.625,-8.855469 1.63668,-2.415992 7.48201,-0.589193 10.58984,-2.392578 3.10782,-1.803386 3.67296,-7.175934 1.69531,-11.150391 -1.97765,-3.974457 -6.49829,-6.550821 -10.3125,-9.126953 -3.81421,-2.576132 -6.9208,-5.153199 -9.74609,-5.962891 -0.70632,-0.202423 -1.39552,-0.293197 -2.05274,-0.285156 z"
           style="fill:#3892d5;fill-opacity:1;stroke:#000000;stroke-width:1.81417322;stroke-linecap:butt;stroke-linejoin:miter;stroke-miterlimit:4;stroke-dasharray:none;stroke-opacity:1" />
        <path
           id="path6006"
           transform="scale(0.26458333)"
           d="m 94.957031,40.097656 c -2.047139,0.108205 -3.771628,1.622428 -4.804687,4.033203 -1.377413,3.214368 -1.525265,8.020082 -0.560547,11.605469 0.964718,3.585387 3.04269,5.949708 4.78125,7.125 1.73856,1.175292 3.139002,1.162223 5.619141,0.316406 2.480142,-0.845817 6.040642,-2.525629 7.337892,-4.923828 1.29724,-2.398199 0.33096,-5.514768 -1.81055,-9.064453 -2.1415,-3.549684 -5.45818,-7.531864 -8.419921,-8.712891 -0.740436,-0.295256 -1.460198,-0.414974 -2.142578,-0.378906 z"
           style="fill:#3892d5;fill-opacity:1;stroke:#000000;stroke-width:1.81417322;stroke-linecap:butt;stroke-linejoin:miter;stroke-miterlimit:4;stroke-dasharray:none;stroke-opacity:1" />
        <path
           id="path6006-2"
           transform="scale(0.26458333)"
           d="m 106.43359,20.310547 c -1.3754,-0.01016 -2.4679,0.215319 -3.30078,0.677734 -3.01224,1.672412 -4.095071,7.150695 -2.50195,12.660157 0.11927,0.412462 0.27366,0.827959 0.43164,1.242187 0.0839,0.338275 0.16526,0.677543 0.26562,1.003906 1.1326,3.682916 3.28823,6.49531 5.02149,8.150391 1.73326,1.655081 3.04377,2.153643 5.8125,1.566406 2.76872,-0.587237 6.99508,-2.259915 8.05469,-5.910156 1.05961,-3.650241 -1.0466,-9.278628 -3.35547,-13.00586 -1.39677,-2.254821 -2.53861,-3.560157 -4.07813,-4.332031 -1.23439,-1.171379 -2.6003,-1.722907 -4.8789,-1.964843 -0.5223,-0.05546 -1.01224,-0.0845 -1.47071,-0.08789 z"
           style="fill:#3892d5;fill-opacity:1;stroke:#000000;stroke-width:1.81417322;stroke-linecap:butt;stroke-linejoin:miter;stroke-miterlimit:4;stroke-dasharray:none;stroke-opacity:1" />
        <g
           id="g946"
           style="stroke:#000000;stroke-width:0.47999999;stroke-miterlimit:4;stroke-dasharray:none;stroke-opacity:1">
          <path
             style="fill:#3892d5;fill-opacity:1;stroke:#000000;stroke-width:3.63015175;stroke-linecap:butt;stroke-linejoin:miter;stroke-miterlimit:4;stroke-dasharray:none;stroke-opacity:1"
             d="m 40.752471,83.005806 c 5.668754,0.420071 12.103937,-1.180706 16.381014,-5.45658 4.277077,-4.275874 4.38485,-9.215832 3.491321,-15.173024 -0.89353,-5.957193 -2.685003,-11.782526 -6.988704,-16.41744 -4.3037,-4.634914 -10.585722,-7.180634 -15.43585,-6.258091 -4.850127,0.922544 -9.518083,5.782272 -11.199305,12.57387 -1.681223,6.791598 -0.712259,15.862839 1.729031,21.743619 2.44129,5.88078 6.35374,8.567576 12.022493,8.987646 z"
             id="path6006-2-5"
             transform="matrix(0.126521,-0.0348614,0.02783634,0.130518,26.650858,-0.46175378)" />
          <path
             style="opacity:1;fill:#3892d5;fill-opacity:1;stroke:#000000;stroke-width:0.47999999;stroke-miterlimit:4;stroke-dasharray:none;stroke-opacity:1"
             d="M 33.211989,8.8619881 C 32.769398,8.6900396 32.472118,8.3802511 32.146166,7.7513258 31.791744,7.0674644 31.537123,6.0453536 31.559854,5.3977359 c 0.03329,-0.9484475 0.570679,-1.8360867 1.238527,-2.0457554 0.355649,-0.1116546 0.982939,-0.074248 1.380636,0.082329 0.867192,0.3414213 1.530404,1.1746013 1.926275,2.419944 0.121233,0.3813771 0.148077,0.5540926 0.139769,0.8993032 -0.0095,0.3951727 -0.02535,0.4551407 -0.210935,0.7982808 -0.325583,0.6020084 -0.936858,1.0757262 -1.660529,1.2868568 -0.366265,0.1068572 -0.918038,0.1179218 -1.161608,0.023294 z"
             id="path6068" />
        </g>
        <g
           id="g950"
           style="stroke:#000000;stroke-width:0.47999999;stroke-miterlimit:4;stroke-dasharray:none;stroke-opacity:1">
          <path
             style="fill:#3892d5;fill-opacity:1;stroke:#000000;stroke-width:3.62466145;stroke-linecap:butt;stroke-linejoin:miter;stroke-miterlimit:4;stroke-dasharray:none;stroke-opacity:1"
             d="M 43.894545,84.049739 C 48.797922,83.71341 54.203086,81.988012 57.44049,77.664519 60.677895,73.341027 60.225302,68.452811 59.205307,63.386895 58.185313,58.320978 56.762788,54.1107 53.037144,49.155211 49.3115,44.199722 44.21378,39.714236 39.289896,39.800107 c -4.923884,0.08587 -9.146852,5.042983 -11.291541,11.374677 -2.14469,6.331694 -2.170248,13.98809 -1.175042,19.305704 0.995205,5.317613 2.889557,8.114266 5.850835,10.390521 2.961277,2.276255 6.317019,3.515058 11.220397,3.17873 z"
             id="path6006-2-5-5"
             transform="matrix(0.12905722,-0.03089335,0.0222825,0.13054913,32.632443,0.6215489)" />
          <path
             style="opacity:1;fill:#3892d5;fill-opacity:1;stroke:#000000;stroke-width:0.47999999;stroke-miterlimit:4;stroke-dasharray:none;stroke-opacity:1"
             d="M 39.056494,10.267816 C 38.769138,10.199015 38.387014,9.9882173 38.193769,9.7918927 37.95626,9.5505986 37.790826,9.2419316 37.636416,8.7519843 37.093944,7.0306929 37.464236,5.1893945 38.449607,4.7083404 c 0.712502,-0.3478396 2.049186,0.400734 2.79278,1.5640198 0.244013,0.3817359 0.524008,1.0690499 0.616631,1.5136675 0.191875,0.9210468 -0.283295,1.7628839 -1.25749,2.2278373 -0.572513,0.273244 -1.101386,0.360172 -1.545034,0.253951 z"
             id="path6070" />
        </g>
      </g>
    </g>
  </g>
</svg>
